<svg fill="#000000" xmlns="http://www.w3.org/2000/svg" viewBox="0 0 512 512">
<g>
	<g>
		<path d="M399.105,60.235h-286.21c-8.836,0-16,7.164-16,16v95.404c0,8.836,7.164,16,16,16h286.21c8.836,0,16-7.164,16-16V76.235
			C415.105,67.398,407.941,60.235,399.105,60.235z"/>
	</g>
</g>
<g>
	<g>
		<path d="M496,324.362h-31.702v-60.01c0-8.836-7.164-16-16-16H271.996v-28.714h-32v28.714H63.702c-8.836,0-16,7.164-16,16v60.01H16
			c-8.836,0-16,7.164-16,16v95.404c0,8.836,7.164,16,16,16h95.404c8.836,0,16-7.164,16-16v-95.404c0-8.836-7.164-16-16-16H79.702
			v-44.01h160.293v44.01h-31.698c-8.836,0-16,7.164-16,16v95.404c0,8.836,7.164,16,16,16h95.404c8.836,0,16-7.164,16-16v-95.404
			c0-8.836-7.164-16-16-16h-31.707v-44.01h160.302v44.01h-31.702c-8.836,0-16,7.164-16,16v95.404c0,8.836,7.164,16,16,16H496
			c8.836,0,16-7.164,16-16v-95.404C512,331.525,504.836,324.362,496,324.362z"/>
	</g>
</g>
</svg>